<?xml version="1.0" encoding="utf-8"?>
<!-- Generator: Adobe Illustrator 16.0.0, SVG Export Plug-In . SVG Version: 6.00 Build 0)  -->
<!DOCTYPE svg PUBLIC "-//W3C//DTD SVG 1.1//EN" "http://www.w3.org/Graphics/SVG/1.1/DTD/svg11.dtd">
<svg version="1.1" id="Layer_1" xmlns="http://www.w3.org/2000/svg" xmlns:xlink="http://www.w3.org/1999/xlink" x="0px" y="0px"
	 width="906.833px" height="400px" viewBox="0 0 906.833 400" enable-background="new 0 0 906.833 400" xml:space="preserve">
<rect x="641.5" y="194.833" width="94" height="10"/>
<path d="M895.297,227.833v-76.557h-11.999v-19.244h-8.534v-28h-8.715v-34.5h-10v34.5h-8.717v28h-8.534v19.244H826.8v76.557h-10.536
	v75H826.8h29.536h10.425h28.536h11.536v-75H895.297z M857.333,114.033h7.432v18h-7.432V114.033z M848.798,142.033h24.5v9.244h-24.5
	V142.033z M826.264,292.833v-55h20.072v55H826.264z M856.336,292.833v-65H836.8v-66.557h1.998h44.5h1.999v66.557h-18.536v65H856.336
	z M896.833,292.833h-20.072v-55h20.072V292.833z"/>
<path d="M564.092,266.205h-41.555l-63.275-28.61v-36.926l6.109-15.883l-20.631-27.735l17.734-0.038l-4.197-23.218h105.814V266.205z
	 M524.694,256.205h29.398v-112.41h-83.844l4.191,23.192l-9.828,0.021l12.07,16.229l-7.42,19.289v28.615L524.694,256.205z
	 M519.342,203.883h-15.334v15.334h15.334V203.883z"/>
<path d="M141,308.407H112.52l-36-78.499H60.931l-19.088,20.878L0,179.408h63.727V91.592h65v43.205h98.604l-10.367,36.794
	l14.849,43.131l-66.173,37.222L141,308.407z M118.935,298.407h15.519l23.361-53.535l61.827-34.778l-13.151-38.203l7.633-27.093
	h-95.396v-43.205h-45v87.815H17.454l26.158,44.622l12.912-14.122h26.411L118.935,298.407z M180.383,164.882h-15.333v15.334h15.333
	V164.882z"/>
<rect x="280.5" y="194.833" width="94" height="10"/>
</svg>
