<?xml version="1.0" encoding="utf-8"?>
<!-- Generator: Adobe Illustrator 16.0.0, SVG Export Plug-In . SVG Version: 6.00 Build 0)  -->
<!DOCTYPE svg PUBLIC "-//W3C//DTD SVG 1.1//EN" "http://www.w3.org/Graphics/SVG/1.1/DTD/svg11.dtd">
<svg version="1.1" id="Layer_1" xmlns="http://www.w3.org/2000/svg" xmlns:xlink="http://www.w3.org/1999/xlink" x="0px" y="0px"
	 width="274.67px" height="35.289px" viewBox="0 0 274.67 35.289" enable-background="new 0 0 274.67 35.289" xml:space="preserve">
<g>
	<path fill="#FFFFFF" d="M21.979,9.724c2.155-2.116,4.784-3.174,7.919-3.174c3.136,0,5.766,1.058,7.881,3.174
		c2.157,2.077,3.216,4.745,3.216,7.92c0,3.059-1.059,5.687-3.216,7.843c-2.155,2.155-4.782,3.213-7.881,3.213
		c-3.135,0-5.764-1.058-7.919-3.133c-2.117-2.118-3.177-4.746-3.177-7.923C18.802,14.469,19.861,11.801,21.979,9.724z
		 M34.369,22.348c1.214-1.293,1.842-2.861,1.842-4.704c0-1.92-0.588-3.489-1.804-4.783s-2.705-1.921-4.51-1.921
		c-1.803,0-3.291,0.627-4.509,1.921c-1.216,1.294-1.803,2.863-1.803,4.783c0,1.922,0.587,3.49,1.803,4.783
		c1.218,1.255,2.706,1.882,4.509,1.882C31.661,24.309,33.152,23.644,34.369,22.348z"/>
	<path fill="#FFFFFF" d="M50.249,28.699c-4.115,0-6.9-1.645-8.353-4.979l3.846-2.51c0.98,2.157,2.508,3.256,4.587,3.256
		c1.608,0,2.469-0.785,2.469-1.843c0-0.862-0.783-1.646-2.312-2.392l-3.412-1.609c-2.901-1.372-4.353-3.33-4.353-5.879
		c0-1.688,0.627-3.138,1.923-4.353c1.293-1.214,2.861-1.842,4.783-1.842c3.057,0,5.372,1.252,6.901,3.801l-3.569,2.746
		c-0.98-1.53-2.077-2.315-3.37-2.315c-1.296,0-2.237,0.747-2.237,1.728c0,0.782,0.511,1.409,1.567,1.921l3.608,1.646
		c3.412,1.528,4.98,3.489,4.98,6.469C57.309,26.191,54.367,28.699,50.249,28.699z"/>
	<path fill="#FFFFFF" d="M62.955,19.134c0.315,3.097,2.707,5.255,5.961,5.255c2.235,0,3.765-0.94,4.627-2.783l4.548,0.664
		c-1.214,3.922-4.586,6.43-9.136,6.43c-3.215,0-5.806-1.018-7.804-3.018c-1.999-2-2.979-4.704-2.979-8.038
		c0-3.253,1.021-5.882,3.059-7.96c2.04-2.076,4.47-3.134,7.332-3.134c3.059,0,5.529,1.017,7.373,3.097
		c1.843,2.038,2.783,4.587,2.783,7.645c0,0.707-0.04,1.332-0.117,1.843H62.955z M73.897,15.605
		c-0.514-2.939-2.394-4.745-5.373-4.745c-2.705,0-4.979,1.923-5.492,4.745H73.897z"/>
	<path fill="#FFFFFF" d="M99.578,25.643c-1.881,2.039-4.193,3.057-6.938,3.057c-2.824,0-5.098-1.135-6.783-3.37v9.526h-4.704V7.019
		h4.704v3.411c1.686-2.588,3.998-3.88,6.978-3.88c2.707,0,4.981,1.058,6.823,3.134c1.843,2.078,2.784,4.707,2.784,7.96
		C102.441,20.897,101.5,23.564,99.578,25.643z M95.894,12.783c-1.097-1.296-2.508-1.963-4.275-1.963
		c-3.565,0-5.918,2.551-5.918,6.823c0,4.078,2.471,6.823,5.959,6.823c3.569,0,5.881-2.745,5.881-6.823
		C97.54,15.683,96.992,14.074,95.894,12.783z"/>
	<path fill="#FFFFFF" d="M122.246,11.369c0.195,0.864,0.313,2.197,0.313,4.041v12.821h-4.707V16.507
		c0-1.137-0.037-2.038-0.155-2.666c-0.432-1.959-1.607-2.94-3.605-2.94c-2.158,0-3.608,1.176-4.197,3.058
		c-0.197,0.747-0.312,1.688-0.312,2.862v11.411h-4.706V0h4.706v10.351c1.45-2.549,3.528-3.801,6.233-3.801
		C119.226,6.55,121.499,8.51,122.246,11.369z"/>
	<path fill="#FFFFFF" d="M133.935,28.231V0h10.192c5.174,0,8.273,2.899,8.273,7.488c0,2.432-1.216,4.312-3.685,5.608
		c3.253,0.744,5.371,3.292,5.371,6.704c0,5.057-3.451,8.431-9.41,8.431H133.935z M138.873,4.548v6.667h4.628
		c2.353,0,3.803-1.295,3.803-3.334c0-2.078-1.295-3.333-3.528-3.333H138.873z M138.873,23.682h5.647
		c2.783,0,4.352-1.488,4.352-3.959c0-2.472-1.608-3.96-4.589-3.96h-5.41V23.682z"/>
	<path fill="#FFFFFF" d="M160.048,19.134c0.313,3.097,2.706,5.255,5.96,5.255c2.234,0,3.764-0.94,4.627-2.783l4.549,0.664
		c-1.217,3.922-4.59,6.43-9.136,6.43c-3.216,0-5.804-1.018-7.804-3.018c-1.999-2-2.979-4.704-2.979-8.038
		c0-3.253,1.02-5.882,3.059-7.96c2.038-2.076,4.471-3.134,7.332-3.134c3.058,0,5.528,1.017,7.373,3.097
		c1.841,2.038,2.782,4.587,2.782,7.645c0,0.707-0.039,1.332-0.117,1.843H160.048z M170.986,15.605
		c-0.508-2.939-2.391-4.745-5.369-4.745c-2.707,0-4.981,1.923-5.489,4.745H170.986z"/>
	<path fill="#FFFFFF" d="M190.32,11.644c-0.668-0.115-1.334-0.195-1.999-0.195c-2.666,0-4.353,1.255-5.058,3.806
		c-0.197,0.783-0.313,1.92-0.313,3.447v9.53h-4.706V7.019h4.706v4.235c1.137-3.019,3.293-4.704,6.076-4.704
		c0.588,0,1.02,0.038,1.294,0.076V11.644z"/>
	<path fill="#FFFFFF" d="M210.865,7.019v18.193c0,6.312-3.644,10.077-10.189,10.077c-2.904,0-5.218-0.667-6.903-1.961
		c-1.687-1.295-2.707-2.9-3.021-4.785l4.668-0.588c0.664,2.08,2.431,3.138,5.292,3.138c3.646,0,5.45-1.96,5.45-5.881v-1.53
		c-1.529,2.314-3.645,3.452-6.391,3.452c-2.707,0-4.941-0.98-6.784-2.902c-1.843-1.962-2.746-4.431-2.746-7.411
		c0-3.019,0.903-5.451,2.746-7.371c1.843-1.922,4.118-2.899,6.743-2.899c2.708,0,4.866,1.176,6.432,3.567V7.019H210.865z
		 M196.675,21.172c1.057,1.139,2.389,1.728,4.077,1.728c3.331,0,5.607-2.276,5.607-6.039c0-3.646-2.276-6.079-5.607-6.079
		c-3.41,0-5.607,2.474-5.607,6.079C195.145,18.545,195.653,19.997,196.675,21.172z"/>
	<path fill="#FFFFFF" d="M216.123,9.646c1.922-2.08,4.235-3.097,6.979-3.097c2.941,0,5.176,1.214,6.783,3.646V0h4.705v28.231h-4.705
		v-3.098c-1.607,2.393-3.961,3.565-6.98,3.565c-2.705,0-4.979-1.018-6.822-3.096c-1.843-2.076-2.783-4.745-2.783-7.999
		S214.24,11.685,216.123,9.646z M219.849,22.507c1.099,1.293,2.51,1.922,4.275,1.922c3.566,0,5.917-2.551,5.917-6.824
		c0-4.077-2.471-6.823-5.958-6.823c-3.569,0-5.882,2.746-5.882,6.823C218.201,19.565,218.751,21.211,219.849,22.507z"/>
	<path fill="#FFFFFF" d="M240.201,9.724c2.156-2.116,4.784-3.174,7.92-3.174s5.765,1.058,7.879,3.174
		c2.157,2.077,3.218,4.745,3.218,7.92c0,3.059-1.061,5.687-3.218,7.843c-2.153,2.155-4.78,3.213-7.879,3.213
		c-3.136,0-5.764-1.058-7.92-3.133c-2.117-2.118-3.177-4.746-3.177-7.923C237.024,14.469,238.084,11.801,240.201,9.724z
		 M252.592,22.348c1.214-1.293,1.842-2.861,1.842-4.704c0-1.92-0.587-3.489-1.806-4.783c-1.214-1.294-2.702-1.921-4.507-1.921
		c-1.804,0-3.293,0.627-4.509,1.921s-1.802,2.863-1.802,4.783c0,1.922,0.586,3.49,1.802,4.783c1.216,1.255,2.705,1.882,4.509,1.882
		C249.884,24.309,251.378,23.644,252.592,22.348z"/>
	<path fill="#FFFFFF" d="M266.357,0v28.231h-4.704V0H266.357z"/>
	<path fill="#FFFFFF" d="M274.67,0v28.231h-4.704V0H274.67z"/>
	<path fill="#FFFFFF" d="M11.959,20.21c0,3.417-1.992,4.132-3.665,4.132c-2.623,0-3.897-1.378-3.897-4.211v-0.885H0v1.232
		c0,5.848,3.029,8.221,8.759,8.221c5.12,0,8.178-3.453,8.178-8.453V0.42h-4.978V20.21z"/>
</g>
</svg>
