<?xml version="1.0" encoding="utf-8"?>
<!-- Generator: Adobe Illustrator 16.0.0, SVG Export Plug-In . SVG Version: 6.00 Build 0)  -->
<!DOCTYPE svg PUBLIC "-//W3C//DTD SVG 1.1//EN" "http://www.w3.org/Graphics/SVG/1.1/DTD/svg11.dtd">
<svg version="1.1" id="Layer_1" xmlns="http://www.w3.org/2000/svg" xmlns:xlink="http://www.w3.org/1999/xlink" x="0px" y="0px"
	 width="50px" height="50px" viewBox="0 0 50 50" enable-background="new 0 0 50 50" xml:space="preserve">
<g>
	<rect fill="#FF7D00" width="50" height="50"/>
	<g>
		<g>
			<path fill="#FFFFFF" d="M36.536,23.555L36.536,23.555c-0.104,0-0.206,0-0.307-0.003h-0.284h-4.544v-6.549h4.096
				c0.148,0,0.31-0.005,0.48-0.008c1.016-0.014,2.328-0.044,3.187,0.44c0.95,0.563,1.509,1.579,1.509,2.728
				c0,1.085-0.489,2.119-1.275,2.7C38.548,23.5,37.475,23.555,36.536,23.555z M32.357,22.595l3.879,0.002c0.098,0,0.198,0,0.3,0l0,0
				c0.816,0,1.675-0.041,2.29-0.503c0.543-0.399,0.894-1.157,0.894-1.931c0-0.806-0.389-1.516-1.035-1.9
				c-0.498-0.279-1.389-0.315-2.104-0.315c-0.202,0-0.401,0.001-0.587,0.003c-0.177,0.006-0.344,0.006-0.496,0.006h-3.14V22.595z"/>
		</g>
		<g>
			<path fill="#FFFFFF" d="M38.002,34.26L38.002,34.26c-0.116,0-0.228,0-0.338,0c-0.104-0.003-0.208-0.003-0.309-0.003h-5.955v-7.11
				h6.22c1.02,0,2.288,0,3.254,0.546c1.016,0.576,1.697,1.729,1.697,2.878c0,1.253-0.597,2.421-1.559,3.049
				C40.145,34.209,39.002,34.26,38.002,34.26z M32.357,33.297h4.999c0.101,0,0.208,0,0.315,0c0.107,0.003,0.218,0.003,0.331,0.003
				l0,0c0.858,0,1.83-0.034,2.48-0.476c0.703-0.461,1.133-1.322,1.133-2.254c0-0.801-0.499-1.641-1.212-2.046
				c-0.748-0.423-1.878-0.423-2.783-0.423h-5.264V33.297z"/>
		</g>
		<g>
			<path fill="#FFFFFF" d="M16.889,39.261c-2.121,0-4.399-0.77-6.09-2.063c-1.494-1.143-3.277-3.244-3.277-6.775v-2.213l6.332-0.003
				v1.08c0,1.947,0.776,4.026,2.963,4.026c2.471,0,2.662-1.638,2.662-3.947V12.457h6.898V29.63
				C26.375,35.841,23.007,39.261,16.889,39.261z M8.478,29.167v1.256c0,5.747,5.161,7.887,8.411,7.887
				c7.048,0,8.528-4.722,8.528-8.679V13.415h-4.981v15.951c0,1.833,0,4.903-3.62,4.903c-2.381,0-3.924-1.953-3.924-4.982v-0.123
				L8.478,29.167z"/>
		</g>
	</g>
</g>
</svg>
